<svg xmlns="http://www.w3.org/2000/svg" viewBox="0 0 32 32"><path d="M21.14 14A6.45 6.45 0 0 0 23 9.5V4.43A2.43 2.43 0 0 0 20.57 2h-8.14A2.43 2.43 0 0 0 10 4.43V9.5a6.49 6.49 0 0 0 1.82 4.5h-.09A8.73 8.73 0 0 0 3 22.73v3.74A3.53 3.53 0 0 0 6.53 30h18.94A3.53 3.53 0 0 0 29 26.47v-3.74A8.74 8.74 0 0 0 21.14 14zM12.43 4h8.14a.43.43 0 0 1 .43.43V8h-9V4.43a.43.43 0 0 1 .43-.43zm-.38 6H21a4.48 4.48 0 0 1-8.9 0zM11 21a1 1 0 1 1-1 1 1 1 0 0 1 1-1zm16 5.47A1.54 1.54 0 0 1 25.47 28H6.53A1.54 1.54 0 0 1 5 26.47v-3.74a6.75 6.75 0 0 1 5-6.5v2.95a3 3 0 1 0 2 0V16h8v3.18A3 3 0 0 0 18 22v2a1 1 0 0 0 2 0v-2a1 1 0 0 1 2 0v2a1 1 0 0 0 2 0v-2a3 3 0 0 0-2-2.82v-2.95a6.75 6.75 0 0 1 5 6.5zM14 6a1 1 0 0 1 1-1h3a1 1 0 0 1 0 2h-3a1 1 0 0 1-1-1z"/></svg>