<svg xmlns="http://www.w3.org/2000/svg" viewBox="0 0 24 24"><path d="M22.889,12.875l-1.348-1.767a.515.515,0,0,0-.64-.148l-2.467,1.233H17.215V11.63a.516.516,0,0,0-.516-.515H13.974L12.8,10.179a.511.511,0,0,0-.32-.112H9.337a.516.516,0,0,0-.373.159l-4.023,4.22-.874-.874a.529.529,0,0,0-.729,0L1.157,15.753a.515.515,0,0,0-.151.364v6.364A.515.515,0,0,0,1.521,23H7.885a.513.513,0,0,0,.364-.151l2.181-2.181a.514.514,0,0,0,0-.728l-.954-.955.773-.7h5.7a.519.519,0,0,0,.3-.093l6.529-4.582a.517.517,0,0,0,.114-.735ZM7.671,21.966H2.036V16.331L3.7,14.665,9.337,20.3Zm8.117-4.712H10.051a.516.516,0,0,0-.345.132l-.96.865L5.67,15.175,9.558,11.1H12.3l1.177.937a.517.517,0,0,0,.32.112h2.39v.865l-.877.62H11.728a.515.515,0,1,0,0,1.03h3.743a.519.519,0,0,0,.3-.094L17,13.7a.519.519,0,0,0,.218-.421v-.053c1.3-.016,1.382.04,1.572-.054l2.193-1.1.764,1Z"/><path d="M16.356,9.37a.516.516,0,0,0,.687,0c.13-.117,3.2-2.871,3.92-3.8a2.685,2.685,0,0,0,.463-2.3A3.064,3.064,0,0,0,19.7,1.226a2.77,2.77,0,0,0-3,.64,2.767,2.767,0,0,0-3-.64,3.063,3.063,0,0,0-1.725,2.043,2.69,2.69,0,0,0,.463,2.3C13.152,6.5,16.225,9.253,16.356,9.37ZM12.973,3.516a2.037,2.037,0,0,1,1.154-1.353,1.31,1.31,0,0,1,.557-.124,2.463,2.463,0,0,1,1.617.883.521.521,0,0,0,.4.187h0a.514.514,0,0,0,.4-.187c.043-.051,1.073-1.266,2.175-.759a2.035,2.035,0,0,1,1.154,1.353,1.664,1.664,0,0,1-.278,1.424A47.226,47.226,0,0,1,16.7,8.292,47.187,47.187,0,0,1,13.252,4.94,1.661,1.661,0,0,1,12.973,3.516Z"/></svg>