<svg xmlns="http://www.w3.org/2000/svg" viewBox="0 0 48 48"><g data-name="Trading stock"><path d="M45 3H34.24a8 8 0 0 0-12.48 0H3a3 3 0 0 0-3 3v29a3 3 0 0 0 3 3h17.09l-.89 4H17a2 2 0 0 0-2 2v3a1 1 0 0 0 1 1h16a1 1 0 0 0 1-1v-3a2 2 0 0 0-2-2h-2.2l-.89-4H45a3 3 0 0 0 3-3V6a3 3 0 0 0-3-3zM28 2a6 6 0 1 1-6 6 6 6 0 0 1 6-6zM2 6a1 1 0 0 1 1-1h17.59a8 8 0 1 0 14.82 0H45a1 1 0 0 1 1 1v25H2zm29 40H17v-2h14zm-4.25-4h-5.5l.89-4h3.72zM46 35a1 1 0 0 1-1 1H3a1 1 0 0 1-1-1v-2h44z"/><path d="M9 17H8v-3a1 1 0 0 0-2 0v3H5a1 1 0 0 0-1 1v6a1 1 0 0 0 1 1h1v3a1 1 0 0 0 2 0v-3h1a1 1 0 0 0 1-1v-6a1 1 0 0 0-1-1zm-1 6H6v-4h2zM17 13h-1v-3a1 1 0 0 0-2 0v3h-1a1 1 0 0 0-1 1v6a1 1 0 0 0 1 1h1v3a1 1 0 0 0 2 0v-3h1a1 1 0 0 0 1-1v-6a1 1 0 0 0-1-1zm-1 6h-2v-4h2zM43 27H21a1 1 0 0 0 0 2h22a1 1 0 0 0 0-2zM26 11h1v1a1 1 0 0 0 2 0v-1c.94 0 1.62.12 1.92-.62S30.69 9.27 28.41 7H30a1 1 0 0 0 0-2h-1V4a1 1 0 0 0-2 0v1c-.94 0-1.62-.12-1.92.62s.23 1.11 2.51 3.38H26a1 1 0 0 0 0 2zM21 26c.59 0 .48-.06 5-4.59l3.29 3.3a1 1 0 0 0 1.42 0C42.56 12.85 41 14.16 41 15a1 1 0 0 0 2 0c0-4.57.61-4-4-4a1 1 0 0 0 0 2h.59L30 22.59l-3.29-3.3a1 1 0 0 0-1.42 0l-5 5A1 1 0 0 0 21 26z"/></g></svg>